# xmcd CD database file
#
# Track frame offsets:
#	150
#	11803
#	20146
#	28974
#	38240
#	47477
#	58086
#	70610
#	79738
#	95423
#	107075
#	119980
#	130673
#	141055
#	149088
#	163922
#	174778
#	182149
#	193421
#	210733
#	224293
#	239977
#
# Disc length: 3338 seconds
#
# Revision: 7
# Processed by: cddbd v1.5.2PL0 Copyright (c) Steve Scherf et al.
# Submitted via: CDex 1.51
#
DISCID=5a0d0816
DTITLE=Die schönsten Lieder der FDJ - Unser Zeichen ist die Sonne
DYEAR=0
DGENRE=
TTITLE0=Sag mir, wo du stehst
TTITLE1=Aufbaulied der FDJ (Keiner plagt sich gerne)
TTITLE2=Jugend erwach (Bau auf, Bau auf)
TTITLE3=Du hast ja ein Ziel vor den Augen
TTITLE4=Lied von der blauen Fahne (Auf den Straßen, auf den Bahnen...)
TTITLE5=Eisenbahnerlied (Es rollen die Räder...)
TTITLE6=Wir singen heute schon die Lieder von morgen
TTITLE7=Lied der Jugendbrigaden (Wir sorgen für Wasser in Sosa...)
TTITLE8=Lied über die ruhlose Jugend
TTITLE9=Carpe Diem (Nutze den Tag)
TTITLE10=Oktobersong
TTITLE11=Was machen wir zu Pfingsten
TTITLE12=Partisanen vom Amur
TTITLE13=Bandiera Rossa
TTITLE14=Komsomolzenlied
TTITLE15=Orenburg Lied
TTITLE16=Drushba! - Freundschaft!
TTITLE17=Wir treffen uns in jedem Fall
TTITLE18=Wir sind überall
TTITLE19=Fahnenlied
TTITLE20=Weltjugendlied
TTITLE21=Vorwärts, freie deutsche Jugend
EXTD=YEAR: 0
EXTT0=
EXTT1=
EXTT2=
EXTT3=
EXTT4=
EXTT5=
EXTT6=
EXTT7=
EXTT8=
EXTT9=
EXTT10=
EXTT11=
EXTT12=
EXTT13=
EXTT14=
EXTT15=
EXTT16=
EXTT17=
EXTT18=
EXTT19=
EXTT20=
EXTT21=
PLAYORDER=
